<?xml version="1.0" standalone="no"?>
<svg version="1.0" xmlns="http://www.w3.org/2000/svg" width="128" height="128" viewBox="0 0 1024 1024" preserveAspectRatio="xMidYMid meet">
<g transform="translate(0,1024) scale(0.1,-0.1)" fill="#ffffff" stroke="none">
<path d="M1301 6905 c-154 -34 -287 -164 -338 -330 -17 -57 -18 -112 -16 -974 3 -997 1 -969 60 -1070 59 -102 165 -185 281 -221 61 -19 93 -20 646 -20 535 0 583 2 602 18 51 41 59 113 18 161 l-25 30 -572 3 -572 3 -53 24 c-31 14 -70 43 -96 72 -80 89 -76 35 -76 1005 0 837 1 865 20 916 23 63 85 128 150 157 44 20 63 21 728 21 l682 0 0 -586 c0 -385 -4 -600 -11 -628 -15 -61 -74 -134 -139 -170 l-55 -31 -365 -5 c-201 -3 -373 -9 -383 -14 -24 -11 -47 -58 -47 -95 0 -20 11 -42 29 -63 l29 -33 352 -3 c211 -2 374 1 408 8 142 25 291 137 350 262 51 106 53 139 50 828 -3 710 1 673 -75 725 l-38 25 -740 -1 c-591 0 -753 -3 -804 -14z"/>
<path d="M3300 4860 l0 -670 110 0 110 0 -2 485 c-2 267 -1 485 2 485 3 -1 32 -40 64 -88 33 -48 157 -224 276 -392 120 -168 246 -347 281 -397 l63 -93 98 0 98 0 2 670 3 670 -105 0 -105 0 3 -412 c2 -227 2 -444 0 -483 l-3 -70 -66 95 c-68 100 -212 303 -464 658 l-150 212 -107 0 -108 0 0 -670z"/>
<path d="M6680 4860 l0 -671 100 3 101 3 2 667 2 668 -102 0 -103 0 0 -670z"/>
<path d="M7143 5510 c-38 -22 -63 -67 -63 -109 0 -110 134 -162 214 -82 27 28 31 38 31 87 0 51 -3 58 -37 90 -45 40 -94 45 -145 14z"/>
<path d="M8331 4860 l2 -670 104 0 103 0 0 283 c0 213 3 295 14 330 32 106 96 151 216 152 116 0 182 -45 210 -144 6 -20 10 -163 10 -328 l0 -293 105 0 105 0 0 293 c0 160 -5 321 -11 356 -21 133 -99 240 -207 283 -47 18 -76 23 -162 23 -92 0 -112 -3 -160 -26 -30 -14 -70 -40 -87 -56 l-33 -31 0 249 0 249 -105 0 -105 0 1 -670z"/>
<path d="M4881 5134 c-80 -21 -144 -60 -205 -124 -96 -100 -136 -208 -137 -365 0 -158 42 -269 138 -362 91 -90 204 -133 343 -133 191 0 339 87 415 244 18 38 32 74 29 78 -3 4 -50 8 -104 8 l-100 0 -26 -39 c-58 -89 -177 -129 -285 -98 -84 25 -135 67 -170 140 -16 34 -29 72 -29 85 l0 22 359 0 358 0 6 36 c9 52 -8 172 -33 234 -86 219 -327 337 -559 274z m245 -198 c28 -13 63 -39 77 -58 26 -34 57 -98 57 -118 0 -7 -87 -10 -256 -10 l-255 0 7 23 c24 78 86 149 150 172 63 23 161 19 220 -9z"/>
<path d="M5917 5135 c-217 -60 -367 -259 -367 -488 0 -293 203 -497 495 -497 141 0 265 52 358 149 263 275 130 750 -234 836 -77 18 -187 18 -252 0z m269 -211 c167 -103 192 -381 47 -515 -60 -55 -104 -72 -189 -73 -169 -1 -284 124 -284 309 0 144 71 258 189 302 23 8 65 12 113 10 64 -3 85 -9 124 -33z"/>
<path d="M7700 5136 c-143 -40 -226 -130 -237 -257 -7 -77 15 -136 69 -185 51 -46 114 -75 253 -115 199 -57 243 -97 203 -183 -24 -54 -137 -81 -230 -56 -40 11 -94 66 -104 105 -6 25 -8 25 -105 25 l-99 0 0 -32 c0 -52 52 -149 104 -195 73 -64 149 -88 281 -88 131 1 196 22 269 87 60 52 87 107 94 185 13 168 -61 243 -317 318 -175 51 -211 73 -211 130 0 123 257 129 315 8 l20 -43 92 0 c50 0 94 4 97 9 8 12 -21 117 -41 149 -42 68 -107 111 -208 138 -61 17 -185 16 -245 0z"/>
<path d="M7080 4660 l0 -470 105 0 105 0 0 470 0 470 -105 0 -105 0 0 -470z"/>
</g>
</svg> 