<?xml version="1.0" standalone="no"?>
<svg version="1.0" xmlns="http://www.w3.org/2000/svg" width="64" height="64" viewBox="0 0 300 300" preserveAspectRatio="xMidYMid meet">
<g transform="translate(0,300) scale(0.1,-0.1)" fill="#000000" stroke="none">
<path d="M1301 6905 c-154 -34 -287 -164 -338 -330 -17 -57 -18 -112 -16 -974
3 -997 1 -969 60 -1070 59 -102 165 -185 281 -221 61 -19 93 -20 646 -20 535
0 583 2 602 18 51 41 59 113 18 161 l-25 30 -572 3 -572 3 -53 24 c-31 14 -70
43 -96 72 -80 89 -76 35 -76 1005 0 837 1 865 20 916 23 63 85 128 150 157 44
20 63 21 728 21 l682 0 0 -586 c0 -385 -4 -600 -11 -628 -15 -61 -74 -134
-139 -170 l-55 -31 -365 -5 c-201 -3 -373 -9 -383 -14 -24 -11 -47 -58 -47
-95 0 -20 11 -42 29 -63 l29 -33 352 -3 c211 -2 374 1 408 8 142 25 291 137
350 262 51 106 53 139 50 828 -3 710 1 673 -75 725 l-38 25 -740 -1 c-591 0
-753 -3 -804 -14z"/>
</g>
</svg> 